<svg xmlns="http://www.w3.org/2000/svg" viewBox="0 0 666.2 473.51"><defs><style>.cls-1{fill:#ed5e5e;stroke:#084c61;stroke-miterlimit:10;stroke-width:16.12px;}.cls-2{fill:#084c61;}.cls-3{fill:#d7f9f1;}.cls-4{fill:#074052;}</style></defs><title>logo-red-blue</title><g id="Layer_2" data-name="Layer 2"><g id="Layer_4" data-name="Layer 4"><path class="cls-1" d="M324,10.32,18.34,172.72a19.36,19.36,0,0,0-8.61,24.95L123.62,454a19.33,19.33,0,0,0,17.68,11.49H524.91A19.35,19.35,0,0,0,542.59,454L656.47,197.67a19.35,19.35,0,0,0-8.6-24.95L342.18,10.32A19.39,19.39,0,0,0,324,10.32Z"/><path class="cls-2" d="M330.62,52.67,296.93,71.4a2.39,2.39,0,0,1-.85.26l-15.4,1.39a2.09,2.09,0,0,0-.85.25l-14.28,7.83a2.13,2.13,0,0,1-1.1.26l-5.54-.18a2.16,2.16,0,0,0-1,.23l-104,51.75a2.15,2.15,0,0,0,1.57,4L255.33,107a2.15,2.15,0,0,1,2.44,3.2l-20.42,32.3a2.15,2.15,0,0,0,2.79,3.07l75.42-38.27a2.15,2.15,0,0,1,2.27.21l91.62,69.72a2.16,2.16,0,0,0,3.21-2.72l-18-34.22a2.15,2.15,0,0,1,2.43-3.09L622.4,194.48a2.15,2.15,0,0,0,1.49-4l-204.82-102a1.66,1.66,0,0,0-.47-.17l-25.39-5.88a2.64,2.64,0,0,1-.47-.17L332.62,52.62A2.17,2.17,0,0,0,330.62,52.67Z"/><path class="cls-3" d="M156.64,430.88V312.62h30.05V430.88Z"/><path class="cls-3" d="M201.32,430.88V312.62H240.9c41.39,0,67,25,67,59.13s-25.62,59.13-66.85,59.13Zm30.05-93v67.67h9.36c24,0,36.8-15.44,36.8-33.83s-12.82-33.84-37-33.84Z"/><path class="cls-3" d="M362.12,311h1.48l58.8,119.91H391l-8.38-18.07H342.9l-8.21,18.07H303.32Zm12,81.64c-4.11-9.37-8.87-21-11.17-28.26-1.64,3.95-8.05,20.7-11.33,28.26Z"/><path class="cls-3" d="M481.7,433.18c-38.27,0-64.22-26.94-64.22-61.43,0-34.17,26.28-61.43,63.07-61.43,17.41,0,30.06,4.1,37.94,7.88v27.43a82.39,82.39,0,0,0-35.31-7.88c-22.67,0-35.48,15.76-35.48,34s12.65,34.32,34,34.32A55.18,55.18,0,0,0,494,404.6V375.36h28.74v48.95C511.59,429.89,496.16,433.18,481.7,433.18Z"/><path class="cls-3" d="M111.74,243.39v55.38h-18V243.39H75V228.33h55.57v15.06Z"/><path class="cls-3" d="M138.36,298.77V228.33h46.18v15.06H156.26v12.52h24.17V270.2H156.26v13.5H186v15.07Z"/><path class="cls-3" d="M255,299.75,218.88,268l-5.68-4.7v35.52H195.69V227.35h.78l35.81,31.7c2,1.56,3.82,3.32,5.77,4.79V228.33h17.61v71.42Z"/><path class="cls-3" d="M269.26,298.77V228.33h46.18v15.06H287.17v12.52h24.16V270.2H287.17v13.5h29.74v15.07Z"/><path class="cls-3" d="M389.8,298.77V228.33h17.9v70.44Z"/><path class="cls-3" d="M439.21,243.39v13.5H461v14.68H439.21v27.2H421.3V228.33h43.83v15.06Z"/><path class="cls-3" d="M492.23,243.39v13.5h21.82v14.68H492.23v27.2h-17.9V228.33h43.83v15.06Z"/><path class="cls-3" d="M548.2,228.33h15.94l28.08,70.44H573.34l-4.79-13.31H543.79L539,298.77H520.12Zm15.16,43.14c-1-2.54-4.5-13.21-7.14-21.62h-.1c-2.64,8.41-6.16,19.08-7.14,21.62Z"/><path class="cls-3" d="M412.59,308.84c-15.65,0-29.54-6.16-39.62-26.51a102.22,102.22,0,0,1-4.4-10.27,21.25,21.25,0,0,0,12.13-19.77c0-15.84-11.74-24-28.86-24H326.6v70.44h17.51V275.58h8.41l1.86,4.79c12.13,33.27,32.88,44.32,58,44.32,5.58,0,11.74-.68,16-2.54V307A65.29,65.29,0,0,1,412.59,308.84Zm-48.72-59.11a1.28,1.28,0,0,1,0,.19V250a7.24,7.24,0,0,1-.15,1,1.24,1.24,0,0,1,0,.16h0c-1.23,5.08-7.63,10.49-11.21,10.5h0c-3.58,0-10-5.42-11.21-10.5h0c0-.06,0-.11,0-.16a5.88,5.88,0,0,1-.14-1v-.06c0-.07,0-.13,0-.19s0-.19,0-.29a6.6,6.6,0,0,1,11.43-4.5,6.59,6.59,0,0,1,11.42,4.5A2.81,2.81,0,0,1,363.87,249.73Z"/><path class="cls-4" d="M392.11,164.05,368,112.21l-14.2-20.1-1.3-15.28L335,63.78l.34-6.18L331,52.53a2.24,2.24,0,0,0-.36.14L296.93,71.4a2.39,2.39,0,0,1-.85.26l-15.4,1.39a2.09,2.09,0,0,0-.85.25l-14.28,7.83a2.13,2.13,0,0,1-1.1.26l-5.54-.18a2.16,2.16,0,0,0-1,.23l-104,51.75a2.15,2.15,0,0,0,1.58,4L255.33,107a2.15,2.15,0,0,1,2.44,3.2l-20.42,32.3a2.15,2.15,0,0,0,2.79,3.07l75.42-38.27a2.15,2.15,0,0,1,2.27.21Z"/></g></g></svg>